<?xml version="1.0" encoding="UTF-8" standalone="no"?>
<!DOCTYPE svg PUBLIC "-//W3C//DTD SVG 1.1//EN"
 "http://www.w3.org/Graphics/SVG/1.1/DTD/svg11.dtd">
<!-- Generated by graphviz version 2.28.0 (20110509.1545)
 -->
<!-- Title: FigVisitorDot Pages: 1 -->
<svg width="192pt" height="188pt"
 viewBox="0.00 0.00 192.00 188.00" xmlns="http://www.w3.org/2000/svg" xmlns:xlink="http://www.w3.org/1999/xlink">
<g id="graph1" class="graph" transform="scale(1 1) rotate(0) translate(4 184)">
<title>FigVisitorDot</title>
<polygon fill="white" stroke="white" points="-4,5 -4,-184 189,-184 189,5 -4,5"/>
<!-- ../demo/src/main.cpp -->
<g id="node1" class="node"><title>../demo/src/main.cpp</title>
<ellipse fill="limegreen" stroke="limegreen" cx="92" cy="-162" rx="91.9438" ry="18"/>
<text text-anchor="middle" x="92" y="-156.4" font-family="Times,serif" font-size="14.00">../demo/src/main.cpp</text>
</g>
<!-- ../demo/usr/user.h -->
<g id="node3" class="node"><title>../demo/usr/user.h</title>
<ellipse fill="yellow" stroke="yellow" cx="92" cy="-90" rx="79.4616" ry="18"/>
<text text-anchor="middle" x="92" y="-84.4" font-family="Times,serif" font-size="14.00">../demo/usr/user.h</text>
</g>
<!-- ../demo/src/main.cpp&#45;&gt;../demo/usr/user.h -->
<g id="edge2" class="edge"><title>../demo/src/main.cpp&#45;&gt;../demo/usr/user.h</title>
<path fill="none" stroke="black" d="M92,-143.697C92,-135.983 92,-126.712 92,-118.112"/>
<polygon fill="black" stroke="black" points="95.5001,-118.104 92,-108.104 88.5001,-118.104 95.5001,-118.104"/>
</g>
<!-- ../demo/sys/system.h -->
<g id="node2" class="node"><title>../demo/sys/system.h</title>
<ellipse fill="yellow" stroke="yellow" cx="92" cy="-18" rx="91.1735" ry="18"/>
<text text-anchor="middle" x="92" y="-12.4" font-family="Times,serif" font-size="14.00">../demo/sys/system.h</text>
</g>
<!-- ../demo/usr/user.h&#45;&gt;../demo/sys/system.h -->
<g id="edge4" class="edge"><title>../demo/usr/user.h&#45;&gt;../demo/sys/system.h</title>
<path fill="none" stroke="black" d="M92,-71.6966C92,-63.9827 92,-54.7125 92,-46.1124"/>
<polygon fill="black" stroke="black" points="95.5001,-46.1043 92,-36.1043 88.5001,-46.1044 95.5001,-46.1043"/>
</g>
</g>
</svg>
